<svg width="20" height="20" viewBox="0 0 20 20" fill="none" xmlns="http://www.w3.org/2000/svg">
<g id="&#240;&#159;&#166;&#134; icon &#34;Tether Cryptocurrency&#34;">
<g id="Group">
<path id="Vector" d="M10 20C15.5228 20 20 15.5228 20 10C20 4.47715 15.5228 0 10 0C4.47715 0 0 4.47715 0 10C0 15.5228 4.47715 20 10 20Z" fill="#26A17B"/>
<path id="Vector_2" fill-rule="evenodd" clip-rule="evenodd" d="M11.2014 10.8647V10.8635C11.1326 10.8685 10.7782 10.8897 9.98762 10.8897C9.35637 10.8897 8.912 10.871 8.75575 10.8635V10.8653C6.32575 10.7585 4.512 10.3353 4.512 9.82908C4.512 9.32346 6.32575 8.90033 8.75575 8.79158V10.4441C8.9145 10.4553 9.3695 10.4822 9.99825 10.4822C10.7526 10.4822 11.1307 10.451 11.2014 10.4447V8.79283C13.6264 8.90096 15.4357 9.32408 15.4357 9.82908C15.4357 10.3353 13.6264 10.7572 11.2014 10.8647ZM11.2014 8.62096V7.14221H14.5851V4.88721H5.372V7.14221H8.75575V8.62033C6.00575 8.74658 3.93762 9.29158 3.93762 9.94408C3.93762 10.5966 6.00575 11.141 8.75575 11.2678V16.0066H11.2014V11.2666C13.947 11.1403 16.0101 10.596 16.0101 9.94408C16.0101 9.29221 13.947 8.74783 11.2014 8.62096Z" fill="white"/>
</g>
</g>
</svg>
